<svg width="111" height="76" viewBox="0 0 111 76" fill="none" xmlns="http://www.w3.org/2000/svg">
<path d="M81.1693 45.8903L64.8769 45.8903L92.2623 0.134641L109.538 5.98447e-06L81.1693 45.8903Z" fill="black"/>
<path d="M51.3858 45.8927L34.6171 45.8927L62.4788 0.136995L79.754 0.00235249L51.3858 45.8927Z" fill="black"/>
<path d="M33.8923 46.0278L50.1846 46.0304L22.7855 0.270183L5.51034 0.132797L33.8923 46.0278Z" fill="white"/>
<path d="M63.6758 46.0255L80.4445 46.0255L52.5827 0.269808L35.3075 0.135165L63.6758 46.0255Z" fill="white"/>
<path d="M4.7805 71.0021L0.746404 56.4567H3.05464L5.88845 67.7209H6.02339L8.97084 56.4567H11.2578L14.2052 67.728H14.3402L17.1669 56.4567H19.4822L15.441 71.0021H13.2322L10.1711 60.1072H10.0575L6.9964 71.0021H4.7805ZM23.4133 71.2436C22.722 71.2436 22.097 71.1158 21.5383 70.8601C20.9796 70.5997 20.5369 70.2233 20.2102 69.7308C19.8882 69.2384 19.7272 68.6347 19.7272 67.9197C19.7272 67.3042 19.8456 66.7976 20.0823 66.3999C20.3191 66.0021 20.6387 65.6873 21.0411 65.4553C21.4436 65.2233 21.8934 65.0481 22.3906 64.9297C22.8877 64.8113 23.3944 64.7214 23.9105 64.6598C24.5639 64.584 25.0942 64.5225 25.5014 64.4751C25.9086 64.4231 26.2045 64.3402 26.3892 64.2266C26.5738 64.1129 26.6661 63.9283 26.6661 63.6726V63.6229C26.6661 63.0026 26.491 62.522 26.1406 62.1811C25.7949 61.8402 25.2788 61.6697 24.5923 61.6697C23.8773 61.6697 23.3139 61.8284 22.9019 62.1456C22.4947 62.4581 22.213 62.8061 22.0568 63.1896L20.061 62.7351C20.2978 62.0722 20.6434 61.5372 21.098 61.13C21.5572 60.718 22.0852 60.4197 22.6818 60.2351C23.2784 60.0457 23.9057 59.951 24.5639 59.951C24.9995 59.951 25.4611 60.0031 25.9488 60.1072C26.4412 60.2067 26.9005 60.3913 27.3267 60.6612C27.7575 60.9311 28.1103 61.317 28.3849 61.8189C28.6595 62.3161 28.7968 62.9624 28.7968 63.7578V71.0021H26.723V69.5107H26.6377C26.5004 69.7853 26.2945 70.0552 26.0198 70.3203C25.7452 70.5855 25.3925 70.8056 24.9616 70.9808C24.5307 71.156 24.0146 71.2436 23.4133 71.2436ZM23.875 69.5391C24.4621 69.5391 24.964 69.4231 25.3806 69.1911C25.802 68.959 26.1216 68.656 26.3394 68.282C26.562 67.9032 26.6733 67.4983 26.6733 67.0675V65.6612C26.5975 65.737 26.4507 65.808 26.2329 65.8743C26.0198 65.9358 25.776 65.9903 25.5014 66.0376C25.2268 66.0803 24.9592 66.1205 24.6988 66.1584C24.4384 66.1915 24.2206 66.2199 24.0454 66.2436C23.6335 66.2957 23.2571 66.3833 22.9161 66.5064C22.58 66.6295 22.3101 66.8071 22.1065 67.0391C21.9076 67.2663 21.8082 67.5694 21.8082 67.9482C21.8082 68.4737 22.0023 68.8715 22.3906 69.1413C22.7788 69.4065 23.2736 69.5391 23.875 69.5391ZM39.8 62.7564L37.8753 63.0973C37.7948 62.8511 37.667 62.6167 37.4918 62.3942C37.3213 62.1716 37.0893 61.9894 36.7958 61.8473C36.5022 61.7053 36.1353 61.6342 35.6949 61.6342C35.0936 61.6342 34.5917 61.7692 34.1892 62.0391C33.7868 62.3042 33.5855 62.6475 33.5855 63.0689C33.5855 63.4335 33.7205 63.727 33.9904 63.9496C34.2603 64.1721 34.6959 64.3544 35.2972 64.4965L37.0301 64.8942C38.0339 65.1262 38.782 65.4837 39.2745 65.9666C39.7669 66.4496 40.0131 67.0769 40.0131 67.8487C40.0131 68.5021 39.8237 69.0845 39.4449 69.5959C39.0709 70.1025 38.5477 70.5002 37.8753 70.7891C37.2077 71.0779 36.4335 71.2223 35.5529 71.2223C34.3313 71.2223 33.3346 70.9619 32.5628 70.4411C31.791 69.9155 31.3175 69.1697 31.1424 68.2038L33.1949 67.8913C33.3228 68.4264 33.5855 68.8312 33.9833 69.1058C34.381 69.3757 34.8995 69.5107 35.5387 69.5107C36.2347 69.5107 36.791 69.3662 37.2077 69.0774C37.6244 68.7839 37.8327 68.4264 37.8327 68.005C37.8327 67.6641 37.7049 67.3776 37.4492 67.1456C37.1982 66.9136 36.8123 66.7384 36.2915 66.62L34.4449 66.2152C33.4269 65.9832 32.6741 65.6139 32.1864 65.1072C31.7034 64.6006 31.462 63.959 31.462 63.1825C31.462 62.5386 31.6419 61.9751 32.0017 61.4922C32.3616 61.0092 32.8587 60.6328 33.4932 60.3629C34.1277 60.0883 34.8545 59.951 35.6736 59.951C36.8526 59.951 37.7806 60.2067 38.4577 60.718C39.1348 61.2247 39.5822 61.9041 39.8 62.7564ZM47.4403 60.093V61.7976H41.4815V60.093H47.4403ZM43.0795 57.4794H45.2031V67.799C45.2031 68.2109 45.2646 68.5211 45.3877 68.7294C45.5108 68.933 45.6695 69.0727 45.8636 69.1484C46.0625 69.2195 46.2779 69.255 46.5099 69.255C46.6804 69.255 46.8295 69.2431 46.9573 69.2195C47.0852 69.1958 47.1846 69.1769 47.2556 69.1626L47.6392 70.9169C47.5161 70.9643 47.3409 71.0116 47.1136 71.059C46.8863 71.111 46.6022 71.1394 46.2613 71.1442C45.7026 71.1537 45.1818 71.0542 44.6988 70.8459C44.2159 70.6376 43.8252 70.3156 43.5269 69.88C43.2286 69.4444 43.0795 68.8975 43.0795 68.2394V57.4794ZM54.3739 71.2223C53.2991 71.2223 52.3734 70.9927 51.5969 70.5334C50.8251 70.0694 50.2285 69.4183 49.8071 68.5803C49.3905 67.7375 49.1821 66.7502 49.1821 65.6186C49.1821 64.5012 49.3905 63.5163 49.8071 62.6641C50.2285 61.8118 50.8157 61.1465 51.5685 60.6683C52.3261 60.1901 53.2115 59.951 54.2247 59.951C54.8403 59.951 55.4369 60.0528 56.0145 60.2564C56.5922 60.46 57.1106 60.7796 57.5699 61.2152C58.0292 61.6508 58.3914 62.2166 58.6566 62.9126C58.9217 63.6039 59.0543 64.4444 59.0543 65.434V66.1868H50.3824V64.5959H56.9733C56.9733 64.0372 56.8597 63.5424 56.6324 63.1115C56.4051 62.6759 56.0855 62.3326 55.6736 62.0817C55.2664 61.8307 54.7882 61.7053 54.2389 61.7053C53.6424 61.7053 53.1215 61.852 52.6764 62.1456C52.2361 62.4344 51.8952 62.8132 51.6537 63.282C51.417 63.746 51.2986 64.2502 51.2986 64.7947V66.0376C51.2986 66.7668 51.4264 67.3871 51.6821 67.8984C51.9425 68.4098 52.3048 68.8004 52.7688 69.0703C53.2328 69.3355 53.7749 69.468 54.3952 69.468C54.7977 69.468 55.1646 69.4112 55.496 69.2976C55.8275 69.1792 56.1139 69.004 56.3554 68.772C56.5969 68.54 56.7816 68.2536 56.9094 67.9126L58.9193 68.2749C58.7584 68.8667 58.4695 69.3852 58.0529 69.8303C57.6409 70.2706 57.1225 70.6139 56.4975 70.8601C55.8772 71.1016 55.1693 71.2223 54.3739 71.2223ZM62.8327 60.093L65.2404 64.3402L67.6693 60.093H69.9918L66.5898 65.5476L70.0202 71.0021H67.6978L65.2404 66.9254L62.7901 71.0021H60.4605L63.8554 65.5476L60.5032 60.093H62.8327ZM72.1722 75.093V60.093H74.246V61.8615H74.4236C74.5467 61.6342 74.7243 61.3715 74.9563 61.0732C75.1883 60.7749 75.5103 60.5144 75.9222 60.2919C76.3341 60.0646 76.8786 59.951 77.5557 59.951C78.4364 59.951 79.2224 60.1735 79.9137 60.6186C80.605 61.0637 81.1471 61.7053 81.5401 62.5433C81.9378 63.3814 82.1367 64.3899 82.1367 65.5689C82.1367 66.7479 81.9402 67.7588 81.5472 68.6016C81.1542 69.4396 80.6144 70.0859 79.9279 70.5405C79.2413 70.9903 78.4577 71.2152 77.577 71.2152C76.9141 71.2152 76.372 71.1039 75.9506 70.8814C75.5339 70.6589 75.2072 70.3984 74.9705 70.1001C74.7337 69.8019 74.5514 69.5367 74.4236 69.3047H74.2958V75.093H72.1722ZM74.2532 65.5476C74.2532 66.3146 74.3644 66.987 74.587 67.5646C74.8095 68.1423 75.1315 68.5945 75.5529 68.9212C75.9743 69.2431 76.4904 69.4041 77.1012 69.4041C77.7356 69.4041 78.2659 69.236 78.6921 68.8999C79.1182 68.559 79.4402 68.0973 79.658 67.5149C79.8805 66.9325 79.9918 66.2768 79.9918 65.5476C79.9918 64.8279 79.8829 64.1816 79.6651 63.6087C79.452 63.0358 79.13 62.5836 78.6992 62.2521C78.273 61.9207 77.7404 61.755 77.1012 61.755C76.4856 61.755 75.9648 61.9136 75.5387 62.2308C75.1173 62.5481 74.7977 62.9908 74.5799 63.559C74.3621 64.1271 74.2532 64.79 74.2532 65.5476ZM89.2176 71.2223C88.1428 71.2223 87.2172 70.9927 86.4407 70.5334C85.6689 70.0694 85.0723 69.4183 84.6509 68.5803C84.2342 67.7375 84.0259 66.7502 84.0259 65.6186C84.0259 64.5012 84.2342 63.5163 84.6509 62.6641C85.0723 61.8118 85.6594 61.1465 86.4122 60.6683C87.1698 60.1901 88.0552 59.951 89.0685 59.951C89.684 59.951 90.2806 60.0528 90.8583 60.2564C91.4359 60.46 91.9544 60.7796 92.4137 61.2152C92.8729 61.6508 93.2352 62.2166 93.5003 62.9126C93.7655 63.6039 93.898 64.4444 93.898 65.434V66.1868H85.2262V64.5959H91.8171C91.8171 64.0372 91.7034 63.5424 91.4762 63.1115C91.2489 62.6759 90.9293 62.3326 90.5174 62.0817C90.1102 61.8307 89.6319 61.7053 89.0827 61.7053C88.4861 61.7053 87.9653 61.852 87.5202 62.1456C87.0799 62.4344 86.7389 62.8132 86.4975 63.282C86.2607 63.746 86.1424 64.2502 86.1424 64.7947V66.0376C86.1424 66.7668 86.2702 67.3871 86.5259 67.8984C86.7863 68.4098 87.1485 68.8004 87.6125 69.0703C88.0765 69.3355 88.6187 69.468 89.2389 69.468C89.6414 69.468 90.0084 69.4112 90.3398 69.2976C90.6712 69.1792 90.9577 69.004 91.1992 68.772C91.4407 68.54 91.6253 68.2536 91.7532 67.9126L93.7631 68.2749C93.6021 68.8667 93.3133 69.3852 92.8966 69.8303C92.4847 70.2706 91.9662 70.6139 91.3412 70.8601C90.721 71.1016 90.0131 71.2223 89.2176 71.2223ZM96.2542 71.0021V60.093H98.3068V61.826H98.4204C98.6193 61.2389 98.9697 60.7772 99.4715 60.4411C99.9782 60.1001 100.551 59.9297 101.19 59.9297C101.323 59.9297 101.479 59.9344 101.659 59.9439C101.844 59.9534 101.988 59.9652 102.092 59.9794V62.0107C102.007 61.987 101.856 61.9609 101.638 61.9325C101.42 61.8994 101.202 61.8828 100.984 61.8828C100.482 61.8828 100.035 61.9894 99.642 62.2024C99.2537 62.4108 98.946 62.7019 98.7187 63.076C98.4914 63.4453 98.3778 63.8667 98.3778 64.3402V71.0021H96.2542ZM109.667 60.093V61.7976H103.708V60.093H109.667ZM105.306 57.4794H107.43V67.799C107.43 68.2109 107.491 68.5211 107.614 68.7294C107.737 68.933 107.896 69.0727 108.09 69.1484C108.289 69.2195 108.504 69.255 108.736 69.255C108.907 69.255 109.056 69.2431 109.184 69.2195C109.312 69.1958 109.411 69.1769 109.482 69.1626L109.866 70.9169C109.743 70.9643 109.567 71.0116 109.34 71.059C109.113 71.111 108.829 71.1394 108.488 71.1442C107.929 71.1537 107.408 71.0542 106.925 70.8459C106.442 70.6376 106.052 70.3156 105.754 69.88C105.455 69.4444 105.306 68.8975 105.306 68.2394V57.4794Z" fill="white"/>
</svg>
