<svg width="10" height="10" viewBox="0 0 10 10" fill="none" xmlns="http://www.w3.org/2000/svg">
<path fill-rule="evenodd" clip-rule="evenodd" d="M3.76236 0.00853798C1.91125 0.207159 0.428 1.56389 0.0628791 3.39244C-0.0209597 3.81223 -0.0209597 4.52445 0.0628791 4.94424C0.229538 5.77884 0.623537 6.52251 1.20931 7.10807C1.80992 7.70845 2.52089 8.08823 3.38377 8.26955C3.78646 8.35416 4.52887 8.35515 4.94326 8.27161C5.41175 8.17715 5.91183 7.98889 6.26651 7.77351C6.36411 7.71424 6.45126 7.66575 6.46019 7.66575C6.46912 7.66575 6.97607 8.16303 7.58678 8.77082C8.84799 10.0261 8.81611 10.0015 9.18016 9.99972C9.44217 9.99847 9.59914 9.93648 9.76826 9.76743C9.93849 9.59725 9.99996 9.44128 9.99996 9.17955C9.99996 8.81277 10.0262 8.84672 8.76517 7.58063C7.69299 6.50416 7.65487 6.46251 7.69046 6.40613C7.96913 5.9646 8.16613 5.46815 8.27274 4.93892C8.35561 4.52737 8.35488 3.81275 8.27112 3.39244C7.93441 1.70241 6.64442 0.406721 4.96342 0.070108C4.70759 0.0188736 4.00273 -0.0172489 3.76236 0.00853798ZM4.61093 1.28311C5.22556 1.37639 5.78214 1.65965 6.22943 2.10675C7.37443 3.25134 7.37443 5.08534 6.22943 6.22993C5.36115 7.09789 4.04187 7.33511 2.95071 6.8195C2.04162 6.38992 1.42751 5.57816 1.28075 4.61204C1.09145 3.36608 1.7106 2.15355 2.83165 1.57478C3.3886 1.28721 3.98936 1.18873 4.61093 1.28311Z" fill="white"/>
</svg>
