<svg width="30" height="30" viewBox="0 0 30 30" fill="none" xmlns="http://www.w3.org/2000/svg">
<path fill-rule="evenodd" clip-rule="evenodd" d="M8.89198 0.0528318C7.43426 0.298296 6.18186 1.39911 5.71085 2.84892L5.61094 3.15656H3.15425C0.807714 3.15656 0.687179 3.16183 0.466326 3.27452C0.201876 3.40947 -0.00145707 3.74669 7.86568e-06 4.04782C0.00135561 4.31567 0.223498 4.67628 0.466912 4.80584C0.656474 4.90669 0.848381 4.91448 3.141 4.91448H5.61094L5.71085 5.22212C6.1324 6.5197 7.13318 7.50747 8.43709 7.91279C9.00642 8.08981 10.0865 8.10159 10.6345 7.93676C11.6773 7.62308 12.6998 6.79669 13.1415 5.91063C13.799 4.59167 13.7292 3.03837 12.9593 1.85974C12.0833 0.518564 10.4459 -0.208864 8.89198 0.0528318ZM9.9673 1.80964C10.6866 1.94506 11.307 2.42702 11.6256 3.09796C11.7882 3.44052 11.8064 3.53486 11.8064 4.03552C11.8064 4.53582 11.7882 4.63075 11.6258 4.97325C10.9381 6.42448 9.0911 6.746 7.957 5.61196C7.79809 5.45305 7.59722 5.17172 7.51055 4.98691C7.37091 4.689 7.35304 4.58088 7.35304 4.03552C7.35304 3.49015 7.37091 3.38204 7.51055 3.08413C7.80272 2.46083 8.46428 1.94799 9.15057 1.81292C9.50731 1.74272 9.60963 1.74231 9.9673 1.80964ZM15.5284 3.26502C15.2029 3.43958 15.0879 3.64075 15.0879 4.03552C15.0879 4.43304 15.211 4.64839 15.5315 4.81182C15.7194 4.90762 16.1743 4.9143 22.5307 4.91436C29.0382 4.91448 29.3376 4.90985 29.5331 4.80584C29.7765 4.67628 29.9986 4.31567 30 4.04782C30.0015 3.74669 29.7981 3.40947 29.5337 3.27452C29.3058 3.15832 29.2019 3.15656 22.5165 3.15656C16.024 3.15656 15.7219 3.16125 15.5284 3.26502ZM20.6929 10.7188C20.2688 10.7947 19.5703 11.0808 19.1858 11.336C18.7356 11.6349 18.1024 12.3372 17.8498 12.818C17.2469 13.9653 17.2481 15.4304 17.8531 16.5929C18.1711 17.204 18.9789 18.0003 19.5706 18.2857C20.2913 18.6334 20.6245 18.7102 21.4164 18.7112C22.2049 18.7122 22.6441 18.6075 23.3058 18.2611C24.2071 17.7893 24.956 16.8951 25.2576 15.9308L25.3584 15.6085L27.4013 15.5792C29.6937 15.5463 29.6578 15.5532 29.8871 15.1038C30.0314 14.821 30.0314 14.5795 29.8871 14.2967C29.6578 13.8473 29.6937 13.8542 27.4013 13.8213L25.3584 13.792L25.2576 13.4697C24.8707 12.2328 23.8514 11.2352 22.5591 10.8287C22.1165 10.6894 21.1686 10.6336 20.6929 10.7188ZM22.2391 12.5966C22.854 12.8267 23.3937 13.4049 23.5864 14.0401C23.9268 15.1621 23.3207 16.3904 22.2164 16.8161C21.7607 16.9918 21.0731 16.9922 20.6188 16.817C19.7399 16.4781 19.1604 15.6369 19.1604 14.7002C19.1604 13.1082 20.7335 12.0334 22.2391 12.5966ZM0.466912 13.9299C0.21881 14.0619 0.00100402 14.4221 0.00100402 14.7002C0.00100402 14.9784 0.21881 15.3385 0.466912 15.4706C0.662627 15.5747 0.974716 15.5792 7.95853 15.5792C16.0234 15.5792 15.4931 15.6045 15.7776 15.2058C15.9599 14.95 15.9599 14.4504 15.7776 14.1947C15.4931 13.796 16.0234 13.8213 7.95853 13.8213C0.974716 13.8213 0.662627 13.8258 0.466912 13.9299ZM7.76322 21.4039C6.32513 21.7334 5.1656 22.7815 4.74241 24.1344L4.64156 24.4567L2.59868 24.486C0.306296 24.5189 0.342158 24.512 0.112866 24.9614C-0.0323965 25.2462 -0.0312831 25.486 0.116851 25.7763C0.33624 26.2063 0.361085 26.2109 2.62792 26.2439L4.64156 26.2732L4.74177 26.5971C5.06487 27.6419 5.97964 28.6435 7.00491 29.075C7.43853 29.2575 8.15237 29.4082 8.58359 29.4082C8.76354 29.4082 9.11401 29.3662 9.36234 29.3149C10.2568 29.1301 10.9193 28.7534 11.5481 28.0719C12.2563 27.3042 12.5975 26.4241 12.5975 25.365C12.5975 24.2217 12.244 23.371 11.4266 22.5474C10.8719 21.9883 10.5092 21.7582 9.81413 21.5241C9.24064 21.3309 8.31779 21.2768 7.76322 21.4039ZM9.40623 23.2613C10.2584 23.5801 10.8396 24.4332 10.8396 25.365C10.8396 26.628 9.85368 27.6085 8.58359 27.6085C7.31525 27.6085 6.32612 26.6264 6.32823 25.3692C6.33087 23.7624 7.89061 22.6943 9.40623 23.2613ZM14.544 24.5835C13.9269 24.8876 13.9183 25.8141 14.5297 26.126C14.7578 26.2423 14.8604 26.2439 22.0317 26.2439C29.203 26.2439 29.3056 26.2423 29.5337 26.126C29.7981 25.991 30.0015 25.6538 30 25.3527C29.9986 25.0848 29.7765 24.7242 29.5331 24.5946C29.3374 24.4905 29.0265 24.4861 22.0326 24.4874C15.4314 24.4885 14.718 24.4977 14.544 24.5835Z" fill="white"/>
</svg>
