<svg width="22" height="22" viewBox="0 0 22 22" fill="none" xmlns="http://www.w3.org/2000/svg">
<path fill-rule="evenodd" clip-rule="evenodd" d="M9.48631 0.0652709C5.32549 0.486911 1.86491 2.48995 0.560479 5.2318C-0.575084 7.61854 -0.0233887 9.84839 2.56648 13.3403C4.11459 15.4276 5.98767 17.4566 8.58853 19.8638C9.67776 20.8719 10.9698 22 11.0352 22C11.0617 22 11.4131 21.7054 11.8161 21.3454C16.6123 17.0605 20.2519 12.7783 21.4706 9.98662C21.9326 8.92825 22.0021 8.61177 22 7.57476C21.9984 6.7709 21.9761 6.56233 21.8477 6.15061C20.9346 3.22196 17.9232 1.00613 13.82 0.243749C12.5379 0.00550266 10.7876 -0.0665776 9.48631 0.0652709ZM12.3015 4.42983C13.8892 4.76487 15.0563 5.57948 15.5566 6.70189C15.7749 7.19185 15.7747 7.95882 15.556 8.44762C15.0161 9.65429 13.82 10.4529 12.1066 10.7508C11.0271 10.9385 9.65644 10.8062 8.69604 10.4216C7.71452 10.0286 6.97535 9.40603 6.55969 8.62247C6.39592 8.3138 6.38162 8.23147 6.38122 7.59773C6.38082 6.9604 6.39472 6.88101 6.56638 6.5411C6.98362 5.71468 7.8581 5.02512 8.95501 4.65746C9.76686 4.38536 10.2984 4.30909 11.2116 4.33381C11.617 4.34479 12.1 4.38733 12.3015 4.42983Z" fill="white"/>
</svg>
