<svg width="22" height="20" viewBox="0 0 22 20" fill="none" xmlns="http://www.w3.org/2000/svg">
<path fill-rule="evenodd" clip-rule="evenodd" d="M10.3261 0.0774632C9.66128 0.26353 9.90011 0.0562778 4.83535 4.84228C1.59513 7.90417 0.12949 9.31587 0.0738024 9.42868C-0.158453 9.89888 0.185092 10.4909 0.71832 10.5395C1.12779 10.5768 1.21078 10.5388 1.69434 10.0931L2.13855 9.6836L2.15262 13.4877C2.16823 17.7148 2.14866 17.4259 2.46365 18.073C2.99714 19.1689 4.01659 19.8431 5.31689 19.9599C5.91381 20.0135 8.51243 20.0133 8.81134 19.9596C9.09348 19.9089 9.30982 19.7549 9.44115 19.5114L9.5379 19.332V15.9387V12.5454H11.043H12.5481V15.9387V19.332L12.6448 19.5114C12.7761 19.7549 12.9925 19.9089 13.2746 19.9596C13.5734 20.0133 16.0865 20.0135 16.6831 19.9599C17.4117 19.8944 17.9731 19.6896 18.5254 19.2878C19.3026 18.7222 19.7851 17.851 19.8438 16.9071C19.863 16.5976 19.8542 16.5382 19.7652 16.3775C19.6215 16.1182 19.395 15.9605 19.1315 15.9365C18.8171 15.9079 18.6467 15.9516 18.4497 16.1113C18.2456 16.2769 18.1657 16.463 18.105 16.915C18.028 17.4873 17.6884 17.9381 17.1493 18.1832L16.8698 18.3104L15.569 18.3222L14.2681 18.3341V14.9391V11.5442L14.1714 11.3647C14.0401 11.1212 13.8237 10.9673 13.5416 10.9166C13.4028 10.8916 12.404 10.875 11.043 10.875C9.682 10.875 8.68315 10.8916 8.54438 10.9166C8.26224 10.9673 8.0459 11.1212 7.91457 11.3647L7.81781 11.5442V14.9391V18.334L6.47399 18.3222L5.13018 18.3104L4.85066 18.1832C4.36181 17.961 4.00322 17.5242 3.90526 17.0316C3.87743 16.8917 3.86165 15.2232 3.8617 12.4278L3.86178 8.04347L7.23337 4.87626C9.08771 3.13427 10.6564 1.69051 10.7193 1.66785C10.8888 1.60678 11.2431 1.61794 11.3999 1.68928C11.4756 1.72371 13.0222 3.16751 14.8369 4.89769L18.1362 8.04347L18.1373 10.4284L18.1383 12.8133L18.2351 12.9928C18.2883 13.0914 18.4062 13.2282 18.4971 13.2968C18.6496 13.4117 18.6883 13.4214 18.9984 13.4214C19.3085 13.4214 19.3472 13.4117 19.4997 13.2968C19.5906 13.2282 19.7084 13.0914 19.7617 12.9928C19.8571 12.8159 19.8584 12.791 19.8584 11.2471V9.68087L20.3042 10.0917C20.7893 10.5389 20.872 10.5768 21.2816 10.5395C21.814 10.491 22.1568 9.90182 21.9278 9.42868C21.8139 9.1934 12.8665 0.660272 12.4555 0.394922C12.0305 0.120568 11.5775 -0.00393858 11.0192 9.48407e-05C10.7399 0.00213192 10.4994 0.0289807 10.3261 0.0774632Z" fill="white"/>
</svg>
