<svg width="25" height="25" viewBox="0 0 25 25" fill="none" xmlns="http://www.w3.org/2000/svg">
<path fill-rule="evenodd" clip-rule="evenodd" d="M0 12.5C0 19.4036 5.59644 25 12.5 25C19.4036 25 25 19.4036 25 12.5C25 5.59644 19.4036 0 12.5 0C5.59644 0 0 5.59644 0 12.5ZM18.2913 9.98645C18.629 9.54943 18.5485 8.92141 18.1114 8.58372C17.6744 8.24602 17.0464 8.32654 16.7087 8.76355L12.1875 14.6145L7.66628 8.76355C7.32859 8.32654 6.70057 8.24602 6.26355 8.58372C5.82654 8.92141 5.74602 9.54943 6.08372 9.98645L10.6049 15.8374C11.4056 16.8736 12.9694 16.8736 13.7701 15.8374L18.2913 9.98645Z" fill="#9AFEBD"/>
</svg>
