<svg width="102" height="100" viewBox="0 0 102 100" fill="none" xmlns="http://www.w3.org/2000/svg">
<path d="M100 50C100 77.6142 77.6142 100 50 100C22.3858 100 0 77.6142 0 50C0 22.3858 22.3858 0 50 0C77.6142 0 100 22.3858 100 50ZM5.19292 50C5.19292 74.7463 25.2537 94.8071 50 94.8071C74.7463 94.8071 94.8071 74.7463 94.8071 50C94.8071 25.2537 74.7463 5.19292 50 5.19292C25.2537 5.19292 5.19292 25.2537 5.19292 50Z" fill="url(#paint0_linear_871_45)" fill-opacity="0.75"/>
<circle cx="97.5" cy="49.5" r="4" fill="#028C32" stroke="white"/>
<path d="M23.4773 58L31.3433 43.234V44.269H22.7413V41.785H34.0803V43.993L26.7203 58H23.4773ZM41.9603 58.23C40.059 58.23 38.5946 57.5093 37.5673 56.068C36.54 54.6113 36.0263 52.5413 36.0263 49.858C36.0263 47.144 36.54 45.0817 37.5673 43.671C38.5946 42.2603 40.059 41.555 41.9603 41.555C43.877 41.555 45.3413 42.2603 46.3533 43.671C47.3806 45.0817 47.8943 47.1363 47.8943 49.835C47.8943 52.5337 47.3806 54.6113 46.3533 56.068C45.3413 57.5093 43.877 58.23 41.9603 58.23ZM41.9603 55.792C43.003 55.792 43.7773 55.3167 44.2833 54.366C44.7893 53.4 45.0423 51.8897 45.0423 49.835C45.0423 47.7803 44.7893 46.293 44.2833 45.373C43.7773 44.4377 43.003 43.97 41.9603 43.97C40.933 43.97 40.1586 44.4377 39.6373 45.373C39.1313 46.293 38.8783 47.7803 38.8783 49.835C38.8783 51.8897 39.1313 53.4 39.6373 54.366C40.1586 55.3167 40.933 55.792 41.9603 55.792ZM55.5213 58.23C53.62 58.23 52.1557 57.5093 51.1283 56.068C50.101 54.6113 49.5873 52.5413 49.5873 49.858C49.5873 47.144 50.101 45.0817 51.1283 43.671C52.1557 42.2603 53.62 41.555 55.5213 41.555C57.438 41.555 58.9023 42.2603 59.9143 43.671C60.9417 45.0817 61.4553 47.1363 61.4553 49.835C61.4553 52.5337 60.9417 54.6113 59.9143 56.068C58.9023 57.5093 57.438 58.23 55.5213 58.23ZM55.5213 55.792C56.564 55.792 57.3383 55.3167 57.8443 54.366C58.3503 53.4 58.6033 51.8897 58.6033 49.835C58.6033 47.7803 58.3503 46.293 57.8443 45.373C57.3383 44.4377 56.564 43.97 55.5213 43.97C54.494 43.97 53.7197 44.4377 53.1983 45.373C52.6923 46.293 52.4393 47.7803 52.4393 49.835C52.4393 51.8897 52.6923 53.4 53.1983 54.366C53.7197 55.3167 54.494 55.792 55.5213 55.792ZM63.9763 58V41.785H66.9433V48.961H66.9893L74.0503 41.785H77.6383L69.1743 50.226L69.1973 48.938L78.1903 58H74.4873L66.9893 50.502H66.9433V58H63.9763Z" fill="#028C32"/>
<defs>
<linearGradient id="paint0_linear_871_45" x1="-10" y1="62" x2="136" y2="-9.84669e-07" gradientUnits="userSpaceOnUse">
<stop offset="0.0208333" stop-color="#ECE542"/>
<stop offset="0.0209333" stop-color="#0CB774"/>
<stop offset="0.493323" stop-color="#15DDAD"/>
<stop offset="1" stop-color="#77F5A7"/>
</linearGradient>
</defs>
</svg>
