<svg width="22" height="22" viewBox="0 0 22 22" fill="none" xmlns="http://www.w3.org/2000/svg">
<path fill-rule="evenodd" clip-rule="evenodd" d="M9.56635 0.0480875C9.08235 0.171145 8.63698 0.479381 8.37523 0.872415C8.28796 1.0034 7.69285 2.04047 7.05277 3.17695C5.81728 5.37067 5.78462 5.44516 5.96432 5.65944C6.00575 5.70884 6.80448 6.2005 7.73932 6.75199C9.57164 7.83299 9.65276 7.86787 9.85423 7.66168C9.90535 7.60942 10.2394 7.04952 10.5967 6.41751C10.954 5.78549 11.2633 5.26403 11.284 5.25879C11.3169 5.25038 12.5157 7.31924 12.5157 7.3844C12.5157 7.39818 12.2342 7.57495 11.8901 7.77726C11.546 7.97956 11.2361 8.1864 11.2016 8.2369C11.1058 8.37682 11.1223 8.63707 11.2355 8.77083C11.321 8.87174 11.6335 8.9678 13.8927 9.5874C15.3008 9.97361 16.5069 10.2898 16.5728 10.29C16.7298 10.2905 16.8848 10.1834 16.942 10.035C17.0084 9.86293 18.3248 4.81108 18.3248 4.72844C18.3248 4.51257 18.1073 4.3026 17.8835 4.3026C17.8278 4.3026 17.5131 4.45978 17.1842 4.65187C16.8552 4.84396 16.5718 4.99212 16.5542 4.98102C16.5368 4.96997 16.4449 4.81724 16.3502 4.6417C16.0831 4.14657 15.913 4.02699 15.6414 4.14309C15.4596 4.22084 15.3361 4.43614 15.3768 4.60454C15.4084 4.73517 15.9128 5.65711 16.0718 5.87474C16.2454 6.11244 16.4033 6.11055 16.8428 5.8654C17.1361 5.70184 17.2096 5.67525 17.1902 5.73975C17.1767 5.78475 16.9604 6.60392 16.7094 7.56016C16.4585 8.51635 16.2492 9.30277 16.2444 9.3077C16.2325 9.31989 12.7207 8.35745 12.7001 8.33632C12.6911 8.32712 12.851 8.22347 13.0556 8.10601C13.4622 7.87244 13.5735 7.7316 13.535 7.49878C13.5226 7.42385 12.6976 5.91951 11.7017 4.15586C10.7057 2.39216 9.89085 0.931016 9.89085 0.908826C9.89085 0.885183 10.4675 0.868453 11.2815 0.868453C12.9517 0.868453 12.9889 0.875453 13.401 1.26769C13.6434 1.49849 13.6959 1.52887 13.8519 1.52887C14.0869 1.52887 14.28 1.34351 14.28 1.11796C14.28 0.806242 13.771 0.319385 13.2257 0.109506C12.9765 0.0135259 12.9124 0.00982757 11.3754 0.00150637C10.219 -0.00474555 9.72389 0.00802244 9.56635 0.0480875ZM9.99309 2.88597L10.794 4.30907L10.1197 5.50561C9.74889 6.16369 9.44187 6.70761 9.43748 6.7143C9.43313 6.72099 8.93789 6.43666 8.33702 6.08242C7.73609 5.72817 7.17201 5.39576 7.08345 5.34377C6.99485 5.29172 6.92226 5.23211 6.92209 5.21129C6.92183 5.18073 8.67029 2.04866 8.99818 1.49224C9.06914 1.37182 9.09427 1.35606 9.13842 1.40418C9.16798 1.43645 9.55258 2.10325 9.99309 2.88597ZM14.6407 2.43509C14.3821 2.56558 14.3292 2.90688 14.5348 3.11725C14.7667 3.35442 15.1373 3.26012 15.2311 2.94004C15.2942 2.72421 15.1959 2.51667 14.9885 2.42795C14.8093 2.35135 14.8065 2.35139 14.6407 2.43509ZM6.55598 7.7154C6.53232 7.72403 5.3705 8.04213 3.97416 8.4223C1.14805 9.19173 1.19869 9.17165 1.19869 9.52211C1.19869 9.76616 1.28049 9.84448 1.92582 10.2182C2.2127 10.3843 2.45785 10.5376 2.47054 10.5586C2.48328 10.5797 1.96537 11.5332 1.31961 12.6775C0.0147089 14.9898 -0.0301288 15.0934 0.0081683 15.7057C0.0195283 15.8874 0.0617412 16.135 0.101932 16.2561C0.142165 16.3772 0.497339 17.0508 0.891283 17.753C1.45094 18.7507 1.66101 19.0853 1.85241 19.2839C2.16572 19.609 2.59847 19.827 3.04948 19.8869C3.49067 19.9455 7.84307 19.9452 8.04936 19.8866C8.13701 19.8617 8.24833 19.7898 8.29678 19.7268C8.38263 19.6151 8.38478 19.5611 8.38478 17.5276V15.443L8.25926 15.2992L8.13378 15.1554L6.72884 15.1421C5.92555 15.1345 5.32975 15.1119 5.33753 15.0894C5.3834 14.9563 6.51997 12.9784 6.55121 12.9773C6.57221 12.9766 6.86266 13.1378 7.19667 13.3355C7.91459 13.7606 8.05697 13.7903 8.26008 13.5577C8.32867 13.4792 8.38478 13.3655 8.38478 13.3052C8.38478 13.1436 7.01714 7.95544 6.95402 7.87755C6.90883 7.82181 6.65022 7.68502 6.61115 7.6962C6.60448 7.69809 6.57965 7.70672 6.55598 7.7154ZM6.33614 8.7824C6.37018 8.89824 7.26599 12.3251 7.26599 12.3394C7.26599 12.3462 7.09658 12.2545 6.88947 12.1357C6.41941 11.8659 6.25602 11.8517 6.07637 12.0654C6.00881 12.1457 5.14996 13.6399 4.16779 15.3859C2.8147 17.7912 2.37002 18.5479 2.33246 18.5089C2.22329 18.3955 0.965252 16.1125 0.911765 15.9307C0.828974 15.6492 0.842529 15.4092 0.956818 15.1334C1.01198 15.0002 1.61178 13.9111 2.28973 12.7131C3.17134 11.1553 3.52234 10.4967 3.52234 10.4005C3.52234 10.2022 3.42496 10.0913 3.05778 9.87143C2.87645 9.76281 2.73733 9.67264 2.74869 9.67106C2.76001 9.66947 3.54385 9.45321 4.49052 9.19045C5.43719 8.9277 6.23463 8.71108 6.26265 8.70905C6.29062 8.70703 6.32371 8.74001 6.33614 8.7824ZM18.9057 10.5504C18.6662 10.6552 15.4958 12.5541 15.431 12.6316C15.261 12.8349 15.3149 12.985 15.9838 14.1725C16.3292 14.7857 16.6395 15.332 16.6733 15.3865L16.7347 15.4856H15.4858H14.2369V14.7349C14.2369 13.7738 14.1795 13.6364 13.7777 13.6364C13.6193 13.6364 13.5518 13.7001 11.6664 15.6292L9.71872 17.622V17.8175V18.0129L11.6013 19.9445C12.6367 21.0069 13.5362 21.9043 13.6001 21.9389C13.7898 22.0414 13.9297 22.0166 14.0906 21.852L14.2369 21.7023V20.9714V20.2406H16.5946C19.188 20.2406 19.2152 20.2382 19.7104 19.9682C20.1498 19.7285 20.3819 19.4176 21.1531 18.0357C21.5372 17.3475 21.8844 16.6953 21.9246 16.5863C21.9759 16.4474 21.9985 16.2499 21.9999 15.9259C22.0016 15.5273 21.9868 15.4266 21.8924 15.1955C21.7581 14.8668 19.4683 10.7911 19.3412 10.6546C19.2377 10.5434 19.0334 10.4945 18.9057 10.5504ZM20.0191 13.5583C20.6019 14.593 21.0788 15.4501 21.0788 15.4631C21.0788 15.476 20.3206 15.4814 19.394 15.4751L17.7093 15.4636L17.0301 14.2626L16.3509 13.0617L16.574 12.932C16.6968 12.8607 17.262 12.5271 17.83 12.1906C18.5917 11.7394 18.8754 11.5918 18.911 11.628C18.9376 11.6551 19.4362 12.5237 20.0191 13.5583ZM13.4369 16.1586C13.5331 16.3694 13.4714 16.3661 17.3984 16.3661H21.0805L20.9976 16.5325C20.9519 16.6241 20.6414 17.1837 20.3074 17.7763C19.6333 18.9723 19.4681 19.1778 19.0881 19.2933C18.9027 19.3497 18.4683 19.36 16.2924 19.36C13.4971 19.36 13.5365 19.3567 13.4277 19.6009C13.3995 19.6644 13.3763 19.8887 13.3763 20.0993V20.4822L12.0639 19.1399L10.7515 17.7976L12.0531 16.4649L13.3548 15.1322L13.3779 15.6061C13.3906 15.8667 13.4171 16.1154 13.4369 16.1586ZM7.52417 17.5344V19.0549L5.3547 19.0424C4.16147 19.0355 3.1737 19.0181 3.15968 19.0037C3.13988 18.9834 4.45442 16.6006 4.7543 16.113L4.81523 16.0139H6.1697H7.52417V17.5344Z" fill="white"/>
</svg>
