<svg width="22" height="22" viewBox="0 0 22 22" fill="none" xmlns="http://www.w3.org/2000/svg">
<path fill-rule="evenodd" clip-rule="evenodd" d="M8.09414 0.0573824C7.49531 0.270837 7.17766 1.00503 7.43569 1.57917C7.50267 1.72808 8.24261 2.49397 10.6479 4.90393C12.4639 6.72342 13.8451 8.07411 13.945 8.12799C14.0776 8.1995 14.1909 8.22079 14.4394 8.22079C14.9744 8.22079 14.4847 8.62989 19.2322 4.21636C21.9269 1.71123 21.9451 1.69179 21.9939 1.25843C22.0438 0.815354 21.783 0.331253 21.3814 0.121754L21.1665 0.00965171L14.7188 0.0019976C9.14955 -0.00458149 8.24691 0.00294361 8.09414 0.0573824ZM3.49969 3.08127C3.28163 3.19251 2.66771 3.74623 2.25003 4.20849C1.6439 4.87921 1.08806 5.74791 0.724192 6.59317C-0.463483 9.35213 -0.180212 12.4028 1.49955 14.9424C1.68942 15.2295 1.84477 15.48 1.84477 15.499C1.84477 15.5181 1.45593 15.9205 0.980726 16.3933C0.505484 16.8661 0.0896047 17.3151 0.0565492 17.3913C-0.0740391 17.6918 0.0420203 18.0488 0.328214 18.2268L0.490741 18.3279L3.15581 18.3397L5.82088 18.3515L6.01397 18.2537C6.12014 18.1999 6.25073 18.0901 6.30412 18.0098L6.40118 17.8637V15.1373C6.40118 12.1721 6.409 12.2712 6.15999 12.0753C6.09736 12.026 5.97094 11.9654 5.87908 11.9406C5.54259 11.85 5.48667 11.8903 4.29388 13.0829L3.1945 14.182L3.063 13.9974C2.48576 13.1871 2.02199 11.9649 1.88345 10.8888C1.81296 10.3414 1.85831 9.23994 1.97372 8.69577C2.16849 7.77749 2.50128 6.98938 3.03597 6.18028C3.29603 5.78674 3.49741 5.55294 4.02213 5.03556C4.41974 4.64348 4.70714 4.32399 4.74612 4.23068C4.89907 3.86448 4.74398 3.35553 4.4126 3.13614C4.17589 2.97944 3.74956 2.95382 3.49969 3.08127ZM8.78684 10.1646C8.08068 10.5364 8.07428 11.457 8.77528 11.8177C8.9314 11.898 9.08946 11.8999 14.7143 11.889L20.4929 11.8778L20.6792 11.7469C21.272 11.3306 21.1895 10.4342 20.5333 10.1599C20.3922 10.1009 19.7214 10.0935 14.6449 10.095C9.51058 10.0966 8.90243 10.1038 8.78684 10.1646ZM14.0525 13.8213C13.8855 13.8784 13.4273 14.3181 10.7058 17.0322C8.18213 19.5491 7.53215 20.2198 7.45014 20.3919C7.23796 20.8372 7.35703 21.3924 7.73392 21.7151C8.09766 22.0266 7.6005 22.0068 14.7423 21.9943L21.1665 21.983L21.3814 21.8708C21.783 21.6613 22.0438 21.1772 21.9939 20.7342C21.9451 20.3008 21.9269 20.2814 19.2322 17.7762C15.114 13.9477 15.1267 13.9592 14.8921 13.8499C14.6394 13.7323 14.3425 13.7221 14.0525 13.8213Z" fill="white"/>
</svg>
