<svg width="102" height="100" viewBox="0 0 102 100" fill="none" xmlns="http://www.w3.org/2000/svg">
<path d="M100 50C100 77.6142 77.6142 100 50 100C22.3858 100 0 77.6142 0 50C0 22.3858 22.3858 0 50 0C77.6142 0 100 22.3858 100 50ZM5.19292 50C5.19292 74.7463 25.2537 94.8071 50 94.8071C74.7463 94.8071 94.8071 74.7463 94.8071 50C94.8071 25.2537 74.7463 5.19292 50 5.19292C25.2537 5.19292 5.19292 25.2537 5.19292 50Z" fill="url(#paint0_linear_871_42)" fill-opacity="0.75"/>
<circle cx="97.5" cy="50.5" r="4" fill="#028C32" stroke="white"/>
<path d="M21.7842 61V58.539H25.5102V47.269H26.9362L22.1522 50.121V47.315L26.3612 44.785H28.4772V58.539H31.9732V61H21.7842ZM39.6922 61.23C37.7909 61.23 36.3266 60.5093 35.2992 59.068C34.2719 57.6113 33.7582 55.5413 33.7582 52.858C33.7582 50.144 34.2719 48.0817 35.2992 46.671C36.3266 45.2603 37.7909 44.555 39.6922 44.555C41.6089 44.555 43.0732 45.2603 44.0852 46.671C45.1126 48.0817 45.6262 50.1363 45.6262 52.835C45.6262 55.5337 45.1126 57.6113 44.0852 59.068C43.0732 60.5093 41.6089 61.23 39.6922 61.23ZM39.6922 58.792C40.7349 58.792 41.5092 58.3167 42.0152 57.366C42.5212 56.4 42.7742 54.8897 42.7742 52.835C42.7742 50.7803 42.5212 49.293 42.0152 48.373C41.5092 47.4377 40.7349 46.97 39.6922 46.97C38.6649 46.97 37.8906 47.4377 37.3692 48.373C36.8632 49.293 36.6102 50.7803 36.6102 52.835C36.6102 54.8897 36.8632 56.4 37.3692 57.366C37.8906 58.3167 38.6649 58.792 39.6922 58.792ZM53.2533 61.23C51.3519 61.23 49.8876 60.5093 48.8603 59.068C47.8329 57.6113 47.3193 55.5413 47.3193 52.858C47.3193 50.144 47.8329 48.0817 48.8603 46.671C49.8876 45.2603 51.3519 44.555 53.2533 44.555C55.1699 44.555 56.6343 45.2603 57.6463 46.671C58.6736 48.0817 59.1873 50.1363 59.1873 52.835C59.1873 55.5337 58.6736 57.6113 57.6463 59.068C56.6343 60.5093 55.1699 61.23 53.2533 61.23ZM53.2533 58.792C54.2959 58.792 55.0703 58.3167 55.5763 57.366C56.0823 56.4 56.3353 54.8897 56.3353 52.835C56.3353 50.7803 56.0823 49.293 55.5763 48.373C55.0703 47.4377 54.2959 46.97 53.2533 46.97C52.2259 46.97 51.4516 47.4377 50.9303 48.373C50.4243 49.293 50.1713 50.7803 50.1713 52.835C50.1713 54.8897 50.4243 56.4 50.9303 57.366C51.4516 58.3167 52.2259 58.792 53.2533 58.792ZM67.2973 61H64.8363L74.4043 44.785H76.8653L67.2973 61ZM65.0203 54.468C63.7169 54.468 62.6973 54.0233 61.9613 53.134C61.2253 52.2447 60.8573 51.0333 60.8573 49.5C60.8573 47.9513 61.2253 46.74 61.9613 45.866C62.7126 44.992 63.7323 44.555 65.0203 44.555C66.3236 44.555 67.3433 44.9997 68.0793 45.889C68.8153 46.7783 69.1833 47.982 69.1833 49.5C69.1833 51.0333 68.8153 52.2447 68.0793 53.134C67.3433 54.0233 66.3236 54.468 65.0203 54.468ZM65.0203 52.628C65.5876 52.628 66.0246 52.375 66.3313 51.869C66.6533 51.363 66.8143 50.5733 66.8143 49.5C66.8143 48.4113 66.6533 47.6293 66.3313 47.154C66.0246 46.6633 65.5876 46.418 65.0203 46.418C64.4529 46.418 64.0083 46.6557 63.6863 47.131C63.3796 47.6063 63.2263 48.396 63.2263 49.5C63.2263 50.604 63.3796 51.4013 63.6863 51.892C64.0083 52.3827 64.4529 52.628 65.0203 52.628ZM76.6813 61.23C75.3779 61.23 74.3583 60.7853 73.6223 59.896C72.8863 58.9913 72.5183 57.7723 72.5183 56.239C72.5183 54.6903 72.8863 53.4867 73.6223 52.628C74.3736 51.754 75.3933 51.317 76.6813 51.317C77.9846 51.317 79.0043 51.7617 79.7403 52.651C80.4763 53.525 80.8443 54.721 80.8443 56.239C80.8443 57.7723 80.4763 58.9913 79.7403 59.896C79.0043 60.7853 77.9846 61.23 76.6813 61.23ZM76.6813 59.367C77.2486 59.367 77.6856 59.1217 77.9923 58.631C78.3143 58.125 78.4753 57.3277 78.4753 56.239C78.4753 55.1503 78.3143 54.3683 77.9923 53.893C77.6856 53.4023 77.2486 53.157 76.6813 53.157C76.1139 53.157 75.6693 53.4023 75.3473 53.893C75.0406 54.3683 74.8873 55.1503 74.8873 56.239C74.8873 57.343 75.0406 58.1403 75.3473 58.631C75.6693 59.1217 76.1139 59.367 76.6813 59.367Z" fill="#028C32"/>
<defs>
<linearGradient id="paint0_linear_871_42" x1="-10" y1="62" x2="136" y2="-9.84669e-07" gradientUnits="userSpaceOnUse">
<stop offset="0.0208333" stop-color="#028C32"/>
<stop offset="0.0209333" stop-color="#0CB774"/>
<stop offset="0.493323" stop-color="#15DDAD"/>
<stop offset="1" stop-color="#77F5A7"/>
</linearGradient>
</defs>
</svg>
