<svg width="102" height="100" viewBox="0 0 102 100" fill="none" xmlns="http://www.w3.org/2000/svg">
<path d="M100 50C100 77.6142 77.6142 100 50 100C22.3858 100 0 77.6142 0 50C0 22.3858 22.3858 0 50 0C77.6142 0 100 22.3858 100 50ZM5.19292 50C5.19292 74.7463 25.2537 94.8071 50 94.8071C74.7463 94.8071 94.8071 74.7463 94.8071 50C94.8071 25.2537 74.7463 5.19292 50 5.19292C25.2537 5.19292 5.19292 25.2537 5.19292 50Z" fill="url(#paint0_linear_871_43)" fill-opacity="0.75"/>
<path d="M32.9117 58.23C31.0104 58.23 29.5231 57.8237 28.4497 57.011C27.3917 56.1983 26.8627 55.0713 26.8627 53.63C26.8627 52.4953 27.2077 51.5523 27.8977 50.801C28.5877 50.0497 29.4847 49.605 30.5887 49.467V49.95C29.5921 49.7353 28.7871 49.2677 28.1737 48.547C27.5757 47.8263 27.2767 46.9523 27.2767 45.925C27.2767 44.5603 27.7751 43.4947 28.7717 42.728C29.7837 41.946 31.1637 41.555 32.9117 41.555C34.6751 41.555 36.0551 41.946 37.0517 42.728C38.0637 43.4947 38.5697 44.5603 38.5697 45.925C38.5697 46.9523 38.2784 47.834 37.6957 48.57C37.1284 49.306 36.3541 49.7583 35.3727 49.927V49.467C36.4614 49.6203 37.3354 50.0727 37.9947 50.824C38.6541 51.56 38.9837 52.4953 38.9837 53.63C38.9837 55.0713 38.4471 56.1983 37.3737 57.011C36.3157 57.8237 34.8284 58.23 32.9117 58.23ZM32.9117 55.93C34.0311 55.93 34.8667 55.723 35.4187 55.309C35.9707 54.8797 36.2467 54.251 36.2467 53.423C36.2467 52.595 35.9707 51.974 35.4187 51.56C34.8667 51.146 34.0311 50.939 32.9117 50.939C31.8077 50.939 30.9721 51.146 30.4047 51.56C29.8527 51.974 29.5767 52.595 29.5767 53.423C29.5767 54.251 29.8527 54.8797 30.4047 55.309C30.9721 55.723 31.8077 55.93 32.9117 55.93ZM32.9117 48.639C33.8624 48.639 34.5831 48.4243 35.0737 47.995C35.5797 47.5657 35.8327 46.9753 35.8327 46.224C35.8327 45.488 35.5797 44.913 35.0737 44.499C34.5831 44.0697 33.8624 43.855 32.9117 43.855C31.9764 43.855 31.2557 44.0697 30.7497 44.499C30.2591 44.913 30.0137 45.488 30.0137 46.224C30.0137 46.9753 30.2591 47.5657 30.7497 47.995C31.2557 48.4243 31.9764 48.639 32.9117 48.639ZM45.2538 58.23C44.3798 58.23 43.5134 58.069 42.6548 57.747C41.7961 57.4097 41.0601 56.9573 40.4468 56.39L41.4358 54.182C42.0031 54.7033 42.6164 55.0943 43.2758 55.355C43.9351 55.6157 44.6021 55.746 45.2768 55.746C46.6414 55.746 47.6841 55.2783 48.4048 54.343C49.1408 53.4077 49.5088 52.0123 49.5088 50.157V48.432H49.7848C49.6774 49.1987 49.4168 49.8657 49.0028 50.433C48.5888 51.0003 48.0674 51.4373 47.4388 51.744C46.8254 52.0353 46.1354 52.181 45.3688 52.181C44.4334 52.181 43.5901 51.9587 42.8388 51.514C42.1028 51.0693 41.5201 50.456 41.0908 49.674C40.6768 48.8767 40.4698 47.9797 40.4698 46.983C40.4698 45.925 40.6998 44.9897 41.1598 44.177C41.6351 43.3643 42.2791 42.728 43.0918 42.268C43.9044 41.7927 44.8398 41.555 45.8978 41.555C47.9524 41.555 49.5318 42.2603 50.6358 43.671C51.7551 45.0663 52.3148 47.0443 52.3148 49.605C52.3148 51.4297 52.0311 52.986 51.4638 54.274C50.9118 55.562 50.1068 56.5433 49.0488 57.218C47.9908 57.8927 46.7258 58.23 45.2538 58.23ZM46.0818 49.835C46.6491 49.835 47.1474 49.7123 47.5768 49.467C48.0061 49.2217 48.3434 48.8767 48.5888 48.432C48.8341 47.972 48.9568 47.4507 48.9568 46.868C48.9568 46.27 48.8341 45.7487 48.5888 45.304C48.3434 44.8593 48.0061 44.5143 47.5768 44.269C47.1474 44.0083 46.6491 43.878 46.0818 43.878C45.5144 43.878 45.0161 44.0083 44.5868 44.269C44.1574 44.5143 43.8201 44.8593 43.5748 45.304C43.3448 45.7487 43.2298 46.27 43.2298 46.868C43.2298 47.4507 43.3448 47.972 43.5748 48.432C43.8201 48.8767 44.1574 49.2217 44.5868 49.467C45.0161 49.7123 45.5144 49.835 46.0818 49.835ZM60.5168 58H58.0558L67.6238 41.785H70.0848L60.5168 58ZM58.2398 51.468C56.9364 51.468 55.9168 51.0233 55.1808 50.134C54.4448 49.2447 54.0768 48.0333 54.0768 46.5C54.0768 44.9513 54.4448 43.74 55.1808 42.866C55.9321 41.992 56.9518 41.555 58.2398 41.555C59.5431 41.555 60.5628 41.9997 61.2988 42.889C62.0348 43.7783 62.4028 44.982 62.4028 46.5C62.4028 48.0333 62.0348 49.2447 61.2988 50.134C60.5628 51.0233 59.5431 51.468 58.2398 51.468ZM58.2398 49.628C58.8071 49.628 59.2441 49.375 59.5508 48.869C59.8728 48.363 60.0338 47.5733 60.0338 46.5C60.0338 45.4113 59.8728 44.6293 59.5508 44.154C59.2441 43.6633 58.8071 43.418 58.2398 43.418C57.6724 43.418 57.2278 43.6557 56.9058 44.131C56.5991 44.6063 56.4458 45.396 56.4458 46.5C56.4458 47.604 56.5991 48.4013 56.9058 48.892C57.2278 49.3827 57.6724 49.628 58.2398 49.628ZM69.9008 58.23C68.5974 58.23 67.5778 57.7853 66.8418 56.896C66.1058 55.9913 65.7378 54.7723 65.7378 53.239C65.7378 51.6903 66.1058 50.4867 66.8418 49.628C67.5931 48.754 68.6128 48.317 69.9008 48.317C71.2041 48.317 72.2238 48.7617 72.9598 49.651C73.6958 50.525 74.0638 51.721 74.0638 53.239C74.0638 54.7723 73.6958 55.9913 72.9598 56.896C72.2238 57.7853 71.2041 58.23 69.9008 58.23ZM69.9008 56.367C70.4681 56.367 70.9051 56.1217 71.2118 55.631C71.5338 55.125 71.6948 54.3277 71.6948 53.239C71.6948 52.1503 71.5338 51.3683 71.2118 50.893C70.9051 50.4023 70.4681 50.157 69.9008 50.157C69.3334 50.157 68.8888 50.4023 68.5668 50.893C68.2601 51.3683 68.1068 52.1503 68.1068 53.239C68.1068 54.343 68.2601 55.1403 68.5668 55.631C68.8888 56.1217 69.3334 56.367 69.9008 56.367Z" fill="#028C32"/>
<circle cx="97.5" cy="49.5" r="4" fill="#028C32" stroke="white"/>
<defs>
<linearGradient id="paint0_linear_871_43" x1="-10" y1="62" x2="136" y2="-9.84669e-07" gradientUnits="userSpaceOnUse">
<stop offset="0.0208333" stop-color="#028C32"/>
<stop offset="0.0209333" stop-color="#0CB774"/>
<stop offset="0.493323" stop-color="#15DDAD"/>
<stop offset="1" stop-color="#77F5A7"/>
</linearGradient>
</defs>
</svg>
