<svg width="22" height="22" viewBox="0 0 22 22" fill="none" xmlns="http://www.w3.org/2000/svg">
<path fill-rule="evenodd" clip-rule="evenodd" d="M1.47344 0.058545C0.112386 0.396097 -0.455644 2.04058 0.415558 3.12122C0.844558 3.65335 1.32503 3.86546 2.1015 3.86546H2.57002V12.9327V22H10.9986H19.4273V17.5426V13.0852L20.5409 11.9669C21.4596 11.0444 21.6779 10.8018 21.7879 10.5814C22.159 9.83783 22.0371 8.99724 21.4692 8.38427C21.0667 7.94982 20.5626 7.74978 19.9687 7.78875C19.7774 7.80135 19.5773 7.8252 19.524 7.84178L19.4273 7.87195L19.4266 4.82664C19.4259 1.50578 19.4233 1.46526 19.1788 1.01375C19.0264 0.73223 18.688 0.392874 18.4135 0.246207C17.9202 -0.0172161 18.448 -0.00243345 9.68877 0.00156303C3.47399 0.00439923 1.64046 0.0171192 1.47344 0.058545ZM15.6116 1.40527C15.5687 1.55834 15.5687 2.30504 15.6116 2.4581L15.6446 2.57628H8.71604C0.943251 2.57628 1.59079 2.60464 1.38597 2.25536C1.32766 2.15592 1.27992 2.01948 1.27992 1.95223C1.27992 1.75137 1.43534 1.4855 1.61285 1.38267L1.77446 1.28907L8.70954 1.28808L15.6446 1.2871L15.6116 1.40527ZM17.8276 1.40321C17.8885 1.44863 17.9782 1.53917 18.027 1.60445C18.1147 1.72177 18.1158 1.76341 18.1272 5.29625L18.1386 8.86944L17.3966 9.61188L16.6545 10.3544H10.9239H5.19321V10.999V11.6435H10.2778H15.3624L14.7184 12.2881L14.0744 12.9327H9.63385H5.19321V13.5773V14.2219H8.98769H12.7822L12.1382 14.8665L11.4943 15.5111H8.34376H5.19321V16.1557V16.8003H7.77341H10.3536V18.111V19.4216H11.7188H13.084L15.6106 16.8971L18.1372 14.3726V17.5417V20.7108H10.9986H3.86011V12.2881V3.86546H10.6761H17.4921V3.24103C17.4921 2.68341 17.4841 2.61418 17.4169 2.59433C17.3755 2.58208 17.2745 2.53919 17.1924 2.49897C16.7317 2.27319 16.7314 1.59861 17.192 1.35993C17.376 1.26462 17.6686 1.28452 17.8276 1.40321ZM5.19321 8.42058V9.06518H8.41845H11.6437V8.42058V7.77599H8.41845H5.19321V8.42058ZM20.3468 9.12478C20.5205 9.19728 20.6711 9.3986 20.7042 9.60234C20.7424 9.83731 20.6208 10.0886 20.3298 10.3763L20.0712 10.6321L19.6103 10.1716L19.1495 9.71102L19.3851 9.46916C19.5147 9.33616 19.6788 9.19092 19.7498 9.1464C19.9024 9.0507 20.1481 9.0418 20.3468 9.12478ZM19.1262 11.5355C19.1262 11.5596 17.9652 12.7395 16.5461 14.1574L13.966 16.7354L13.5038 16.2736L13.0417 15.8118L15.6427 13.2123L18.2438 10.6128L18.685 11.0522C18.9277 11.2939 19.1262 11.5114 19.1262 11.5355ZM12.5894 17.2082L13.0391 17.6591L12.8051 17.8958L12.5712 18.1324H12.1074H11.6437V17.6718V17.2112L11.868 16.9843C11.9914 16.8595 12.103 16.7573 12.116 16.7573C12.1291 16.7573 12.3421 16.9602 12.5894 17.2082Z" fill="white"/>
</svg>
