<svg width="22" height="22" viewBox="0 0 22 22" fill="none" xmlns="http://www.w3.org/2000/svg">
<path fill-rule="evenodd" clip-rule="evenodd" d="M5.12247 0.059243C2.75873 0.362412 0.787599 1.83458 0.194305 3.73991C-0.167271 4.90104 -0.0225776 6.07537 0.614702 7.15175C1.40926 8.49389 2.88429 9.47432 4.65505 9.83736C5.34779 9.97943 6.51294 9.99972 7.20873 9.88185C8.87574 9.59945 10.23 8.86287 11.127 7.75069C11.6375 7.11762 11.8959 6.58856 12.0741 5.81098C12.1914 5.29951 12.1547 4.33558 11.9987 3.82914C11.7763 3.10696 11.4363 2.52676 10.8963 1.9478C9.55706 0.511954 7.31374 -0.221832 5.12247 0.059243ZM7.43153 1.21655C9.32602 1.71311 10.6037 2.96228 10.8364 4.54543C11.067 6.11342 10.0842 7.66115 8.36648 8.4353C7.64517 8.76039 6.93722 8.90233 6.04227 8.90129C3.50951 8.89833 1.42734 7.26591 1.31248 5.19312C1.24653 4.00301 1.67526 3.08302 2.68706 2.24362C3.25866 1.76938 3.75444 1.49926 4.41174 1.30394C5.07875 1.10574 5.40174 1.06654 6.22576 1.08377C6.87462 1.0974 7.05119 1.11683 7.43153 1.21655ZM5.82051 1.90202C5.72735 1.93637 5.60358 2.0284 5.54544 2.10654C5.44504 2.2416 5.4398 2.32043 5.43991 3.68867C5.44006 5.0398 5.4463 5.13642 5.5414 5.25472C5.73228 5.49208 5.71986 5.49083 7.9183 5.49251C9.72083 5.49384 9.9666 5.48597 10.0835 5.42317C10.4696 5.21573 10.4516 4.72687 10.0507 4.53271C9.92498 4.4718 9.69425 4.46239 8.32779 4.46239H6.75001L6.74969 3.44151C6.74954 2.88005 6.7261 2.35181 6.69764 2.26774C6.58833 1.9451 6.17323 1.77204 5.82051 1.90202ZM12.7789 3.49924C12.7789 3.51325 12.8242 3.71154 12.8795 3.93983C12.9349 4.16812 12.9964 4.51453 13.0161 4.70955L13.0519 5.06417L16.3099 5.06434C19.4488 5.06447 19.5741 5.06756 19.7358 5.14842C20.0919 5.32642 20.066 4.73039 20.0658 12.7455C20.0656 19.866 20.0637 20.0038 19.9632 20.1388C19.7486 20.4275 20.1757 20.4096 13.5104 20.4096C8.01644 20.4096 7.46089 20.4033 7.32878 20.3393C6.99116 20.1758 7.01213 20.5064 7.01213 15.342V10.6531L6.36096 10.6551C6.00279 10.6563 5.56635 10.6439 5.3911 10.6276L5.07241 10.5981V15.3857C5.07241 19.9542 5.07697 20.1862 5.17154 20.4527C5.43419 21.1927 6.12536 21.7387 7.04899 21.936C7.30624 21.9909 8.223 22 13.5143 22C19.394 22 19.6974 21.9962 20.0576 21.9187C20.8973 21.7379 21.5369 21.255 21.8613 20.5565L21.9795 20.3021L21.9933 12.8477C22.0085 4.69059 22.0254 5.17631 21.7067 4.63432C21.5261 4.32703 20.9646 3.8668 20.5902 3.71906C19.9669 3.47315 19.9776 3.47375 16.2279 3.47375C14.3309 3.47375 12.7789 3.48522 12.7789 3.49924ZM10.0266 9.82301C9.85425 9.85688 9.58442 10.099 9.54966 10.251C9.5061 10.4413 9.66416 10.6854 9.89735 10.7879C10.0672 10.8626 10.2809 10.8671 13.685 10.8671C17.6106 10.8671 17.4621 10.876 17.7022 10.6257C17.8483 10.4734 17.8469 10.2116 17.699 10.0414C17.4776 9.78647 17.5686 9.79197 13.6849 9.79743C11.7305 9.80018 10.0842 9.8117 10.0266 9.82301ZM9.91905 13.0829C9.70778 13.1684 9.58096 13.3531 9.58096 13.5752C9.58096 13.8203 9.82547 14.028 10.1608 14.0678C10.2888 14.0829 11.9634 14.0895 13.8822 14.0824C17.111 14.0703 17.3813 14.0638 17.5119 13.9936C17.8158 13.8302 17.9183 13.4905 17.7333 13.259C17.535 13.0109 17.6239 13.0162 13.6884 13.0173C10.5812 13.0181 10.0567 13.0272 9.91905 13.0829ZM9.8899 16.4334C9.68733 16.5237 9.58096 16.6855 9.58096 16.9034C9.58096 17.0676 9.60901 17.1199 9.76618 17.2488L9.95145 17.4007H13.6963H17.4412L17.6265 17.2488C17.7837 17.1199 17.8117 17.0676 17.8117 16.9034C17.8117 16.6811 17.7032 16.5209 17.492 16.4313C17.2752 16.3394 10.0964 16.3414 9.8899 16.4334Z" fill="white"/>
</svg>
