<svg width="31" height="29" viewBox="0 0 31 29" fill="none" xmlns="http://www.w3.org/2000/svg">
<path fill-rule="evenodd" clip-rule="evenodd" d="M21.5555 0.0330612C19.1422 0.361036 17.0726 1.61993 15.7572 3.56014C14.911 4.80814 14.5188 6.02095 14.4636 7.5602C14.4293 8.51711 14.4903 9.07454 14.7196 9.90188C15.5577 12.9243 18.2379 15.1996 21.4835 15.6438C22.1088 15.7294 23.6026 15.6827 24.1919 15.5591C25.7477 15.2329 27.0791 14.5438 28.2109 13.4791C29.4267 12.3354 30.175 11.03 30.5442 9.4087C30.7313 8.58709 30.7298 7.10011 30.5411 6.2819C30.1674 4.66223 29.4772 3.43341 28.3042 2.29915C26.7779 0.823459 24.9522 0.0607566 22.8125 0.00491175C22.3283 -0.00774415 21.7626 0.00491175 21.5555 0.0330612ZM24.1039 1.98525C26.7793 2.653 28.6822 4.9154 28.8097 7.58046C28.9464 10.4354 26.9887 12.9784 24.0848 13.7178C23.4967 13.8676 22.2497 13.9221 21.6253 13.8253C18.5643 13.3512 16.3265 10.8342 16.3265 7.86542C16.3265 5.19071 18.041 2.9156 20.6889 2.07679C21.7118 1.75279 23.0307 1.71743 24.1039 1.98525ZM10.6328 3.98301C7.5755 4.85434 5.28823 7.27683 4.58363 10.3897C4.46553 10.9114 4.45156 11.1821 4.41088 13.7382C4.37068 16.2641 4.35524 16.5691 4.24242 17.0648C3.82954 18.8788 2.95888 20.3349 1.5397 21.5852C0.882813 22.1638 0.683594 22.5562 0.683594 23.2715C0.683594 23.7265 0.703786 23.8245 0.865262 24.1523C1.09606 24.6212 1.46069 24.9737 1.94559 25.1969L2.32712 25.3725L5.44777 25.389L8.56843 25.4055L8.6965 25.8132C9.16286 27.2976 10.3787 28.4363 11.9653 28.8746C12.3345 28.9765 12.5708 29.0008 13.1862 29C14.0868 28.9988 14.463 28.9165 15.2406 28.5508C16.4032 28.0039 17.2535 27.0435 17.6526 25.8265L17.7828 25.4293L20.914 25.4009L24.0452 25.3725L24.3808 25.2204C25.3032 24.8024 25.8294 23.8671 25.6576 22.9509C25.5499 22.3768 25.3656 22.1055 24.552 21.3239C23.7841 20.586 23.269 19.9218 22.8687 19.1532C22.6519 18.737 22.4704 18.5667 22.1419 18.4716C21.682 18.3384 21.1495 18.6447 21.0175 19.1183C20.9261 19.4468 21.0392 19.7671 21.5201 20.5408C22.0224 21.3487 22.5195 21.9538 23.2467 22.6424C23.5729 22.9513 23.8397 23.2386 23.8397 23.2809C23.8397 23.3232 23.7869 23.4089 23.7224 23.4713C23.6058 23.5839 23.5267 23.5848 13.1659 23.5848C3.12729 23.5848 2.7231 23.5808 2.62971 23.481C2.45737 23.2969 2.51713 23.1702 2.95918 22.7831C4.46453 21.4649 5.60872 19.5311 6.04426 17.569C6.24753 16.6534 6.2892 16.0051 6.28944 13.7546C6.28967 11.3596 6.32853 10.9445 6.64021 10.0065C6.98447 8.97051 7.51762 8.13829 8.34039 7.35249C9.14577 6.58331 10.2212 5.97418 11.2491 5.70501C11.9832 5.51278 12.2763 5.22493 12.2763 4.69628C12.2763 4.26774 11.8178 3.83222 11.3725 3.83778C11.2401 3.83942 10.9072 3.9048 10.6328 3.98301ZM21.0071 4.88067C20.7173 4.98067 20.627 5.05825 20.4832 5.33072C20.2724 5.73037 20.3993 6.17333 20.8097 6.47026C20.9315 6.55834 21.0904 6.59432 21.4518 6.61566L21.9321 6.64404L21.9614 8.78238C21.9948 11.2141 21.9742 11.1162 22.5058 11.374C22.724 11.4798 22.8295 11.4989 23.0231 11.4672C23.3337 11.4164 23.6985 11.1063 23.7796 10.824C23.858 10.5509 23.8602 5.74757 23.782 5.4839C23.7057 5.22669 23.3969 4.92562 23.138 4.85609C22.8233 4.77153 21.2714 4.78947 21.0071 4.88067ZM15.7977 25.4718C15.7965 25.622 15.4298 26.1517 15.1285 26.4384C14.0831 27.4332 12.4381 27.4655 11.2993 26.5137C11.0587 26.3125 10.7211 25.859 10.5871 25.5569L10.5179 25.4009H13.158C15.2314 25.4009 15.7981 25.4161 15.7977 25.4718Z" fill="#028C32"/>
</svg>
