<svg width="25" height="25" viewBox="0 0 25 25" fill="none" xmlns="http://www.w3.org/2000/svg">
<path d="M15.625 16.6656V14.5823C16.0938 14.35 17.4344 12.7542 17.575 11.5073C17.9437 11.4792 18.5229 11.1406 18.6937 9.80417C18.7854 9.08646 18.4208 8.68333 18.2 8.55625C18.2 8.55625 18.75 7.51146 18.75 6.25C18.75 3.72083 17.7573 1.5625 15.625 1.5625C15.625 1.5625 14.8844 0 12.5 0C8.08125 0 6.25 2.83437 6.25 6.25C6.25 7.4 6.8 8.55625 6.8 8.55625C6.57917 8.68333 6.21458 9.0875 6.30625 9.80417C6.47708 11.1406 7.05625 11.4792 7.425 11.5073C7.56563 12.7542 8.90625 14.35 9.375 14.5823V16.6656C8.33333 19.7906 0 17.7073 0 24.999H25C25 17.7073 16.6667 19.7906 15.625 16.6656Z" fill="white"/>
</svg>
